<svg xmlns="http://www.w3.org/2000/svg" xmlns:xlink="http://www.w3.org/1999/xlink" viewBox="0 0 144 144" width="144" height="144" style="width: 100%; height: 100%; transform: translate3d(0px, 0px, 0px); content-visibility: visible;" preserveAspectRatio="xMidYMid meet"><defs><clipPath id="__lottie_element_2"><rect width="144" height="144" x="0" y="0"/></clipPath><clipPath id="__lottie_element_4"><path d="M0,0 L144,0 L144,144 L0,144z"/></clipPath></defs><g clip-path="url(#__lottie_element_2)"><g clip-path="url(#__lottie_element_4)" style="display: block;" transform="matrix(1,0,0,1,0,0)" opacity="1"><g style="display: block;" transform="matrix(-0.16843873262405396,0.9552635550498962,-0.9552635550498962,-0.16843873262405396,72,72)" opacity="1"><g opacity="1" transform="matrix(0.9847580194473267,-0.17392994463443756,0.17392994463443756,0.9847580194473267,0,0)"><path stroke-linecap="round" stroke-linejoin="miter" fill-opacity="0" stroke-miterlimit="4" class="primary" stroke-dasharray=" 23.9 26" stroke-dashoffset="0" stroke="rgb(18,19,49)" stroke-opacity="1" stroke-width="12.5" d=" M0,-55.5 C30.630449295043945,-55.5 55.5,-30.630449295043945 55.5,0 C55.5,30.630449295043945 30.630449295043945,55.5 0,55.5 C-30.630449295043945,55.5 -55.5,30.630449295043945 -55.5,0 C-55.5,-30.630449295043945 -30.630449295043945,-55.5 0,-55.5z"/></g></g><g style="display: block;" transform="matrix(-0.949999988079071,0,0,-0.949999988079071,72,72)" opacity="1"><g opacity="1" transform="matrix(0.9335803985595703,-0.3583679497241974,0.3583679497241974,0.9335803985595703,0,0)"><path stroke-linecap="round" stroke-linejoin="miter" fill-opacity="0" stroke-miterlimit="4" class="primary" stroke-dasharray=" 23.4 26" stroke-dashoffset="0" stroke="rgb(18,19,49)" stroke-opacity="1" stroke-width="13" d=" M0,-31.5 C17.384849548339844,-31.5 31.5,-17.384849548339844 31.5,0 C31.5,17.384849548339844 17.384849548339844,31.5 0,31.5 C-17.384849548339844,31.5 -31.5,17.384849548339844 -31.5,0 C-31.5,-17.384849548339844 -17.384849548339844,-31.5 0,-31.5z"/></g></g></g></g></svg>