<svg xmlns="http://www.w3.org/2000/svg" xmlns:xlink="http://www.w3.org/1999/xlink" viewBox="0 0 500 500" width="500" height="500" style="width: 100%; height: 100%; transform: translate3d(0px, 0px, 0px); content-visibility: visible;" preserveAspectRatio="xMidYMid meet"><defs><clipPath id="__lottie_element_26"><rect width="500" height="500" x="0" y="0"/></clipPath><clipPath id="__lottie_element_28"><path d="M0,0 L500,0 L500,500 L0,500z"/></clipPath></defs><g clip-path="url(#__lottie_element_26)"><g clip-path="url(#__lottie_element_28)" style="display: block;" transform="matrix(1,0,0,1,0,0)" opacity="1"><g class="primary design" style="display: none;" transform="matrix(1,0,0,1,0,135)" opacity="1"><path class="primary" fill="rgb(18,19,49)" fill-opacity="1" d=" M421.88,151.04 C421.88,151.04 286.46,151.04 286.46,151.04 C286.46,151.04 286.46,78.13 286.46,78.13 C286.46,78.13 421.88,78.13 421.88,78.13 C421.88,78.13 421.88,151.04 421.88,151.04z"/><g opacity="1" transform="matrix(1,0,0,1,354.1700134277344,114.58599853515625)"><path stroke-linecap="round" stroke-linejoin="round" fill-opacity="0" class="primary" stroke="rgb(18,19,49)" stroke-opacity="1" stroke-width="31.3" d=" M67.70800018310547,36.45899963378906 C67.70800018310547,36.45899963378906 -67.70800018310547,36.45899963378906 -67.70800018310547,36.45899963378906 C-67.70800018310547,36.45899963378906 -67.70800018310547,-36.45899963378906 -67.70800018310547,-36.45899963378906 C-67.70800018310547,-36.45899963378906 67.70800018310547,-36.45899963378906 67.70800018310547,-36.45899963378906 C67.70800018310547,-36.45899963378906 67.70800018310547,36.45899963378906 67.70800018310547,36.45899963378906z"/></g></g><g class="primary design" style="display: none;" transform="matrix(1,0,0,1,0,134.99998474121094)" opacity="1"><path class="primary" fill="rgb(18,19,49)" fill-opacity="1" d=" M416.5,281.51 C416.5,281.51 291.84,281.51 291.84,281.51 C291.84,281.51 291.84,218.5 291.84,218.5 C291.84,218.5 416.5,218.5 416.5,218.5 C416.5,218.5 416.5,281.51 416.5,281.51z"/><g opacity="1" transform="matrix(1,0,0,1,354.1700134277344,250.0030059814453)"><path stroke-linecap="round" stroke-linejoin="round" fill-opacity="0" class="primary" stroke="rgb(18,19,49)" stroke-opacity="1" stroke-width="41" d=" M62.33000183105469,31.503000259399414 C62.33000183105469,31.503000259399414 -62.33000183105469,31.503000259399414 -62.33000183105469,31.503000259399414 C-62.33000183105469,31.503000259399414 -62.33000183105469,-31.503000259399414 -62.33000183105469,-31.503000259399414 C-62.33000183105469,-31.503000259399414 62.33000183105469,-31.503000259399414 62.33000183105469,-31.503000259399414 C62.33000183105469,-31.503000259399414 62.33000183105469,31.503000259399414 62.33000183105469,31.503000259399414z"/></g></g><g class="primary design" style="display: none;" transform="matrix(1,-0.00013409185339696705,0.00013409185339696705,1,-0.051666259765625,-270.9525146484375)" opacity="1"><path class="primary" fill="rgb(18,19,49)" fill-opacity="1" d=" M416,416.84 C416,416.84 292.34,416.84 292.34,416.84 C292.34,416.84 292.34,354 292.34,354 C292.34,354 416,354 416,354 C416,354 416,416.84 416,416.84z"/><g opacity="1" transform="matrix(1,0,0,1,354.1709899902344,385.4200134277344)"><path stroke-linecap="round" stroke-linejoin="round" fill-opacity="0" class="primary" stroke="rgb(18,19,49)" stroke-opacity="1" stroke-width="41" d=" M61.82899856567383,31.420000076293945 C61.82899856567383,31.420000076293945 -61.82899856567383,31.420000076293945 -61.82899856567383,31.420000076293945 C-61.82899856567383,31.420000076293945 -61.82899856567383,-31.420000076293945 -61.82899856567383,-31.420000076293945 C-61.82899856567383,-31.420000076293945 61.82899856567383,-31.420000076293945 61.82899856567383,-31.420000076293945 C61.82899856567383,-31.420000076293945 61.82899856567383,31.420000076293945 61.82899856567383,31.420000076293945z"/></g></g><g class="primary design" style="display: none;" transform="matrix(1,0,0,-1,5,505)" opacity="1"><g opacity="1" transform="matrix(1,0,0,1,145.83599853515625,250.0030059814453)"><path stroke-linecap="round" stroke-linejoin="round" fill-opacity="0" class="primary" stroke="rgb(18,19,49)" stroke-opacity="1" stroke-width="41" d="M0 0"/></g><g opacity="1" transform="matrix(1,0,0,1,195.31500244140625,385.4200134277344)"><path stroke-linecap="round" stroke-linejoin="round" fill-opacity="0" class="primary" stroke="rgb(18,19,49)" stroke-opacity="1" stroke-width="41" d=" M64.69200134277344,-3.4200000762939453 C64.69200134277344,-3.4200000762939453 66.77300262451172,-1.3389999866485596 66.77300262451172,-1.3389999866485596 C66.77300262451172,-1.3389999866485596 64.69200134277344,0.7419999837875366 64.69200134277344,0.7419999837875366"/></g></g><g class="primary design" style="display: none;" transform="matrix(1,0,0,-1,5,505)" opacity="1"><g opacity="1" transform="matrix(1,0,0,1,145.83599853515625,250.0030059814453)"><path stroke-linecap="round" stroke-linejoin="round" fill-opacity="0" class="primary" stroke="rgb(18,19,49)" stroke-opacity="1" stroke-width="41" d=" M67.70800018310547,-135.41700744628906 C67.70800018310547,-135.41700744628906 -26.041000366210938,-135.41700744628906 -26.041000366210938,-135.41700744628906 C-49.053001403808594,-135.41700744628906 -67.70800018310547,-116.76200103759766 -67.70800018310547,-93.75 C-67.70800018310547,-93.75 -67.70800018310547,93.75 -67.70800018310547,93.75 C-67.70800018310547,116.76200103759766 -49.053001403808594,135.41700744628906 -26.041000366210938,135.41700744628906 C-26.041000366210938,135.41700744628906 59.090999603271484,135.41700744628906 62.4010009765625,135.41700744628906"/></g></g><g class="primary design" style="display: none;" transform="matrix(1,0,0,-1,3.697113037109375,505)" opacity="1"><g opacity="1" transform="matrix(1,0,0,1,195.31500244140625,385.4200134277344)"><path stroke-linecap="round" stroke-linejoin="round" fill-opacity="0" class="primary" stroke="rgb(18,19,49)" stroke-opacity="1" stroke-width="41" d=" M-18.22599983215332,-36.45800018310547 C-18.22599983215332,-36.45800018310547 18.229999542236328,-0.003000000026077032 18.229999542236328,-0.003000000026077032 C18.229999542236328,-0.003000000026077032 -18.229999542236328,36.45800018310547 -18.229999542236328,36.45800018310547"/></g></g><g class="primary design" style="display: none;" transform="matrix(1,0,0,1,0,0)" opacity="1"><g opacity="1" transform="matrix(1,0,0,1,151.08799743652344,237.0570068359375)"><path class="primary" fill="rgb(18,19,49)" fill-opacity="1" d=" M67.70800018310547,132.73399353027344 C67.70800018310547,132.73399353027344 -26.04199981689453,132.73399353027344 -26.04199981689453,132.73399353027344 C-37.5,132.73399353027344 -46.875,123.35900115966797 -46.875,111.9010009765625 C-46.875,111.9010009765625 -46.875,-75.5989990234375 -46.875,-75.5989990234375 C-46.875,-87.05699920654297 -37.5,-96.43199920654297 -26.04199981689453,-96.43199920654297 C-26.04199981689453,-96.43199920654297 17.5,-96.43199920654297 17.5,-96.43199920654297 C17.5,-96.43199920654297 16.45800018310547,-95.39099884033203 16.45800018310547,-95.39099884033203 C8.333000183105469,-87.26599884033203 8.333000183105469,-74.14099884033203 16.45800018310547,-66.01599884033203 C20.625,-62.05799865722656 25.83300018310547,-59.9739990234375 31.25,-59.9739990234375 C36.66699981689453,-59.9739990234375 41.875,-62.05799865722656 46.04199981689453,-66.01599884033203 C46.04199981689453,-66.01599884033203 82.29199981689453,-102.4739990234375 82.29199981689453,-102.4739990234375 C90.41699981689453,-110.5989990234375 90.41699981689453,-123.7239990234375 82.29199981689453,-131.8489990234375 C82.29199981689453,-131.8489990234375 45.83300018310547,-168.3070068359375 45.83300018310547,-168.3070068359375 C37.70800018310547,-176.4320068359375 24.58300018310547,-176.4320068359375 16.45800018310547,-168.3070068359375 C8.333000183105469,-160.1820068359375 8.333000183105469,-147.0570068359375 16.45800018310547,-138.9320068359375 C16.45800018310547,-138.9320068359375 17.284000396728516,-138.0989990234375 17.284000396728516,-138.0989990234375 C17.284000396728516,-138.0989990234375 -26.04199981689453,-138.0989990234375 -26.04199981689453,-138.0989990234375 C-60.41699981689453,-138.0989990234375 -88.54199981689453,-109.9739990234375 -88.54199981689453,-75.5989990234375 C-88.54199981689453,-75.5989990234375 -88.54199981689453,111.9010009765625 -88.54199981689453,111.9010009765625 C-88.54199981689453,146.2760009765625 -60.41699981689453,174.4010009765625 -26.04199981689453,174.4010009765625 C-26.04199981689453,174.4010009765625 67.70800018310547,174.4010009765625 67.70800018310547,174.4010009765625 C79.16600036621094,174.4010009765625 88.54199981689453,165.0260009765625 88.54199981689453,153.5679931640625 C88.54199981689453,142.11000061035156 79.16600036621094,132.73399353027344 67.70800018310547,132.73399353027344z"/></g><g opacity="1" transform="matrix(1,0,0,1,354.2130126953125,114.58300018310547)"><path class="primary" fill="rgb(18,19,49)" fill-opacity="1" d=" M62.5,-52.08300018310547 C62.5,-52.08300018310547 -62.5,-52.08300018310547 -62.5,-52.08300018310547 C-73.95800018310547,-52.08300018310547 -83.33300018310547,-42.70800018310547 -83.33300018310547,-31.25 C-83.33300018310547,-31.25 -83.33300018310547,31.25 -83.33300018310547,31.25 C-83.33300018310547,42.70800018310547 -73.95800018310547,52.08300018310547 -62.5,52.08300018310547 C-62.5,52.08300018310547 62.5,52.08300018310547 62.5,52.08300018310547 C73.95800018310547,52.08300018310547 83.33300018310547,42.70800018310547 83.33300018310547,31.25 C83.33300018310547,31.25 83.33300018310547,-31.25 83.33300018310547,-31.25 C83.33300018310547,-42.70800018310547 73.95800018310547,-52.08300018310547 62.5,-52.08300018310547z"/></g><g opacity="1" transform="matrix(1,0,0,1,354.2130126953125,250)"><path class="primary" fill="rgb(18,19,49)" fill-opacity="1" d=" M67.70800018310547,-52.08300018310547 C67.70800018310547,-52.08300018310547 -67.70800018310547,-52.08300018310547 -67.70800018310547,-52.08300018310547 C-76.25,-52.08300018310547 -83.33300018310547,-45 -83.33300018310547,-36.45800018310547 C-83.33300018310547,-36.45800018310547 -83.33300018310547,36.45800018310547 -83.33300018310547,36.45800018310547 C-83.33300018310547,45 -76.25,52.08300018310547 -67.70800018310547,52.08300018310547 C-67.70800018310547,52.08300018310547 67.70800018310547,52.08300018310547 67.70800018310547,52.08300018310547 C76.25,52.08300018310547 83.33300018310547,45 83.33300018310547,36.45800018310547 C83.33300018310547,36.45800018310547 83.33300018310547,-36.45800018310547 83.33300018310547,-36.45800018310547 C83.33300018310547,-45 76.25,-52.08300018310547 67.70800018310547,-52.08300018310547z"/></g><g opacity="1" transform="matrix(1,0,0,1,354.2130126953125,385.4169921875)"><path class="primary" fill="rgb(18,19,49)" fill-opacity="1" d=" M62.5,-52.08300018310547 C62.5,-52.08300018310547 -62.5,-52.08300018310547 -62.5,-52.08300018310547 C-73.95800018310547,-52.08300018310547 -83.33300018310547,-42.70800018310547 -83.33300018310547,-31.25 C-83.33300018310547,-31.25 -83.33300018310547,31.25 -83.33300018310547,31.25 C-83.33300018310547,42.70800018310547 -73.95800018310547,52.08300018310547 -62.5,52.08300018310547 C-62.5,52.08300018310547 62.5,52.08300018310547 62.5,52.08300018310547 C73.95800018310547,52.08300018310547 83.33300018310547,42.70800018310547 83.33300018310547,31.25 C83.33300018310547,31.25 83.33300018310547,-31.25 83.33300018310547,-31.25 C83.33300018310547,-42.70800018310547 73.95800018310547,-52.08300018310547 62.5,-52.08300018310547z"/></g></g><g class="primary design" style="display: block;" transform="matrix(1,0,0,1,0,0)" opacity="1"><g opacity="1" transform="matrix(1,0,0,1,151.08799743652344,237.0570068359375)"><path class="primary" fill="rgb(18,19,49)" fill-opacity="1" d=" M67.70800018310547,132.73399353027344 C67.70800018310547,132.73399353027344 -26.04199981689453,132.73399353027344 -26.04199981689453,132.73399353027344 C-37.5,132.73399353027344 -46.875,123.35900115966797 -46.875,111.9010009765625 C-46.875,111.9010009765625 -46.875,-75.5989990234375 -46.875,-75.5989990234375 C-46.875,-87.05699920654297 -37.5,-96.43199920654297 -26.04199981689453,-96.43199920654297 C-26.04199981689453,-96.43199920654297 17.5,-96.43199920654297 17.5,-96.43199920654297 C17.5,-96.43199920654297 16.45800018310547,-95.39099884033203 16.45800018310547,-95.39099884033203 C8.333000183105469,-87.26599884033203 8.333000183105469,-74.14099884033203 16.45800018310547,-66.01599884033203 C20.625,-62.05799865722656 25.83300018310547,-59.9739990234375 31.25,-59.9739990234375 C36.66699981689453,-59.9739990234375 41.875,-62.05799865722656 46.04199981689453,-66.01599884033203 C46.04199981689453,-66.01599884033203 82.29199981689453,-102.4739990234375 82.29199981689453,-102.4739990234375 C90.41699981689453,-110.5989990234375 90.41699981689453,-123.7239990234375 82.29199981689453,-131.8489990234375 C82.29199981689453,-131.8489990234375 45.83300018310547,-168.3070068359375 45.83300018310547,-168.3070068359375 C37.70800018310547,-176.4320068359375 24.58300018310547,-176.4320068359375 16.45800018310547,-168.3070068359375 C8.333000183105469,-160.1820068359375 8.333000183105469,-147.0570068359375 16.45800018310547,-138.9320068359375 C16.45800018310547,-138.9320068359375 17.284000396728516,-138.0989990234375 17.284000396728516,-138.0989990234375 C17.284000396728516,-138.0989990234375 -26.04199981689453,-138.0989990234375 -26.04199981689453,-138.0989990234375 C-60.41699981689453,-138.0989990234375 -88.54199981689453,-109.9739990234375 -88.54199981689453,-75.5989990234375 C-88.54199981689453,-75.5989990234375 -88.54199981689453,111.9010009765625 -88.54199981689453,111.9010009765625 C-88.54199981689453,146.2760009765625 -60.41699981689453,174.4010009765625 -26.04199981689453,174.4010009765625 C-26.04199981689453,174.4010009765625 67.70800018310547,174.4010009765625 67.70800018310547,174.4010009765625 C79.16600036621094,174.4010009765625 88.54199981689453,165.0260009765625 88.54199981689453,153.5679931640625 C88.54199981689453,142.11000061035156 79.16600036621094,132.73399353027344 67.70800018310547,132.73399353027344z"/></g><g opacity="1" transform="matrix(1,0,0,1,354.2130126953125,114.58300018310547)"><path class="primary" fill="rgb(18,19,49)" fill-opacity="1" d=" M62.5,-52.08300018310547 C62.5,-52.08300018310547 -62.5,-52.08300018310547 -62.5,-52.08300018310547 C-73.95800018310547,-52.08300018310547 -83.33300018310547,-42.70800018310547 -83.33300018310547,-31.25 C-83.33300018310547,-31.25 -83.33300018310547,31.25 -83.33300018310547,31.25 C-83.33300018310547,42.70800018310547 -73.95800018310547,52.08300018310547 -62.5,52.08300018310547 C-62.5,52.08300018310547 62.5,52.08300018310547 62.5,52.08300018310547 C73.95800018310547,52.08300018310547 83.33300018310547,42.70800018310547 83.33300018310547,31.25 C83.33300018310547,31.25 83.33300018310547,-31.25 83.33300018310547,-31.25 C83.33300018310547,-42.70800018310547 73.95800018310547,-52.08300018310547 62.5,-52.08300018310547z"/></g><g opacity="1" transform="matrix(1,0,0,1,354.2130126953125,250)"><path class="primary" fill="rgb(18,19,49)" fill-opacity="1" d=" M67.70800018310547,-52.08300018310547 C67.70800018310547,-52.08300018310547 -67.70800018310547,-52.08300018310547 -67.70800018310547,-52.08300018310547 C-76.25,-52.08300018310547 -83.33300018310547,-45 -83.33300018310547,-36.45800018310547 C-83.33300018310547,-36.45800018310547 -83.33300018310547,36.45800018310547 -83.33300018310547,36.45800018310547 C-83.33300018310547,45 -76.25,52.08300018310547 -67.70800018310547,52.08300018310547 C-67.70800018310547,52.08300018310547 67.70800018310547,52.08300018310547 67.70800018310547,52.08300018310547 C76.25,52.08300018310547 83.33300018310547,45 83.33300018310547,36.45800018310547 C83.33300018310547,36.45800018310547 83.33300018310547,-36.45800018310547 83.33300018310547,-36.45800018310547 C83.33300018310547,-45 76.25,-52.08300018310547 67.70800018310547,-52.08300018310547z"/></g><g opacity="1" transform="matrix(1,0,0,1,354.2130126953125,385.4169921875)"><path class="primary" fill="rgb(18,19,49)" fill-opacity="1" d=" M62.5,-52.08300018310547 C62.5,-52.08300018310547 -62.5,-52.08300018310547 -62.5,-52.08300018310547 C-73.95800018310547,-52.08300018310547 -83.33300018310547,-42.70800018310547 -83.33300018310547,-31.25 C-83.33300018310547,-31.25 -83.33300018310547,31.25 -83.33300018310547,31.25 C-83.33300018310547,42.70800018310547 -73.95800018310547,52.08300018310547 -62.5,52.08300018310547 C-62.5,52.08300018310547 62.5,52.08300018310547 62.5,52.08300018310547 C73.95800018310547,52.08300018310547 83.33300018310547,42.70800018310547 83.33300018310547,31.25 C83.33300018310547,31.25 83.33300018310547,-31.25 83.33300018310547,-31.25 C83.33300018310547,-42.70800018310547 73.95800018310547,-52.08300018310547 62.5,-52.08300018310547z"/></g></g></g></g></svg>